<?xml version="1.0" encoding="UTF-8"?>
<svg viewBox="0 0 87.5 87.5" xmlns="http://www.w3.org/2000/svg" xmlns:xlink="http://www.w3.org/1999/xlink">
 <defs>
  <linearGradient id="b">
   <stop stop-color="#fff" stop-opacity="0" offset="0"/>
   <stop stop-color="#fff" offset="1"/>
  </linearGradient>
  <linearGradient id="d" x1=".71875" x2=".32308" y1=".71875" y2=".26563" xlink:href="#b"/>
  <linearGradient id="a" x1=".99206" x2=".16837" y1=".75781" y2=".10938" xlink:href="#b"/>
  <radialGradient id="c">
   <stop offset="0"/>
   <stop stop-opacity="0" offset="1"/>
  </radialGradient>
 </defs>
 <g transform="translate(.3125,-1.25)" fill-rule="evenodd">
  <path transform="matrix(.47691 0 0 .26705 -23.635 21.657)" d="m80.038 139.98a75.327 60.567 0 1 1 -0.43817 0.43657l58.838 37.818z" fill="url(#c)"/>
  <path d="m56.964 9.6436c-4.2613-2.8702-10.977-3.1587-13.877 1.3365-3.6321 5.8024-3.4365 13.618-8.2989 18.69-5.969 6.8774-15.127 10.322-20.126 18.165-3.4363 4.7022-5.8069 11.341-2.8727 17.175 3.2346 6.3473 10.016 9.6238 16.219 12.145 9.5565 3.5432 20.641 2.1174 28.235-4.2009 10.325-7.8999 16.918-20.424 17.979-33.691 0.21742-6.9477-1.6986-14.193-5.8162-20.033-3.2562-3.8006-7.0541-7.2079-11.442-9.5872z" fill="#e6c5a2"/>
  <path d="m61.391 12.647c-1.4821-1.1479-3.0462-2.1838-4.6916-3.0761-4.2613-2.8702-10.976-3.1587-13.876 1.3365-3.6321 5.8024-3.4343 13.618-8.2967 18.691-5.969 6.8774-15.129 10.322-20.127 18.165-3.4363 4.7022-5.8096 11.34-2.8753 17.174 3.2346 6.3473 10.018 9.6233 16.221 12.145 9.5565 3.5432 20.642 2.1183 28.236-4.1999 10.325-7.8999 16.918-20.424 17.979-33.691 0.21742-6.9477-1.7004-14.194-5.818-20.034-2.0351-2.3753-4.2794-4.5975-6.7495-6.5107zm-1.3576 0.88401c1.9404 1.494 3.7765 3.1271 5.4253 4.9508 4.2314 4.9906 6.2934 11.548 6.404 17.896-0.20027 12.027-5.7302 23.42-14.277 31.285-5.5442 5.7445-13.801 8.6816-21.945 7.7547-4.831-0.62674-9.5136-2.5074-13.774-5.0016-3.7734-2.2024-7.5123-5.5153-8.4191-9.9781-0.72532-4.6179 1.288-9.0416 3.8975-12.555 5.2726-7.0425 13.488-10.924 19.385-17.334 3.7967-4.0371 4.912-9.7336 6.8362-14.826 0.84618-2.4466 1.8707-5.3038 4.5256-6.197 3.3988-1.1654 7.0711 0.56622 9.9669 2.555 0.66699 0.46883 1.3288 0.9523 1.9756 1.4503z" fill="#ae7172" fill-opacity=".29375"/>
  <path d="m59.792 13.407c-2.769-2.2812-6.034-4.2958-9.6343-4.3414-2.5392-0.13675-5.0572 1.0951-6.2261 3.3491-2.3236 3.5594-3.1217 7.9032-5.03 11.692-1.9749 4.4194-5.2297 8.0905-8.9921 11.018-5.1338 4.507-10.716 8.6587-14.746 14.271-2.2602 3.4518-3.4041 7.8554-2.5273 12.089 0.79981 3.3324 3.2415 6.044 5.9233 8.0832 2.2034-1.4629 3.7342-3.6979 5.6352-5.4943 6.5864-6.9662 13.945-13.22 22.155-18.206 7.8864-4.9698 16.441-8.837 25.203-12.111-0.80656-7.9455-5.1481-15.63-11.76-20.35z" fill="url(#d)"/>
  <path d="m52.219 17.613c10.429-0.84639 10.969 7.279 4.855 9.6489-12.407 1.0157-12.048-6.9404-4.855-9.6489z" fill="#ffb300" fill-opacity=".75"/>
  <path d="m52.276 17.708c-7.1926 2.7085-7.5447 10.673 4.8625 9.6572 6.1137-2.3699 5.5667-10.504-4.8625-9.6572zm2.19 0.49696c2.4331-0.20476 6.3386 1.7992 5.0729 4.9025-1.8419 4.3337-7.1606 3.0764-10.467 1.7998-2.8977-2.4249 0.4691-6.2225 3.0932-6.6351 0.76604 9.4e-4 1.5376-0.13942 2.3014-0.06715z" fill-opacity=".21875"/>
  <path d="m60.226 32.125c10.581-0.81066 11.129 6.9716 4.9258 9.2414-12.588 0.97279-12.223-6.6473-4.9258-9.2414z" fill="#ff8000" fill-opacity=".75"/>
  <path d="m60.284 32.216c-7.2974 2.5941-7.6547 10.222 4.9334 9.2494 6.2028-2.2698 5.6479-10.06-4.9334-9.2494zm2.2219 0.47597c2.4686-0.19611 6.431 1.7232 5.1468 4.6955-1.8687 4.1507-7.2649 2.9465-10.62 1.7238-2.94-2.3225 0.47593-5.9598 3.1383-6.355 0.7772 9.1e-4 1.5601-0.13353 2.3349-0.06432z" fill-opacity=".21875"/>
  <path d="m55.349 46.446c11.722-0.84639 12.328 7.279 5.4566 9.6489-13.945 1.0157-13.541-6.9404-5.4566-9.6489z" fill="#ff3a00" fill-opacity=".75"/>
  <path d="m55.413 46.541c-8.0839 2.7085-8.4797 10.673 5.4651 9.6572 6.8713-2.3699 6.2566-10.504-5.4651-9.6572zm2.4614 0.49696c2.7346-0.20477 7.1242 1.7992 5.7015 4.9025-2.0701 4.3337-8.0479 3.0764-11.765 1.7998-3.2568-2.4249 0.52723-6.2225 3.4765-6.6351 0.86097 9.5e-4 1.7282-0.13942 2.5865-0.06716z" fill-opacity=".21875"/>
  <path d="m43.927 57.271c11.113-0.94468 11.688 8.1242 5.1735 10.769-13.221 1.1336-12.838-7.7464-5.1735-10.769z" fill="#23b300" fill-opacity=".75"/>
  <path d="m43.988 57.377c-7.6645 3.023-8.0397 11.912 5.1816 10.779 6.5148-2.6451 5.9319-11.723-5.1816-10.779zm2.3337 0.55468c2.5927-0.22854 6.7545 2.0081 5.4057 5.4718-1.9627 4.837-7.6303 3.4336-11.154 2.0088-3.0878-2.7065 0.49987-6.9451 3.2962-7.4056 0.8163 0.00106 1.6385-0.15561 2.4523-0.07496z" fill-opacity=".21875"/>
  <path d="m25.813 60.121c10.733-0.96255 11.289 8.2779 4.9966 10.973-12.769 1.1551-12.399-7.8929-4.9966-10.973z" fill="#0002ff" fill-opacity=".75"/>
  <path d="m25.872 60.229c-7.4023 3.0802-7.7647 12.138 5.0043 10.983 6.292-2.6951 5.729-11.945-5.0043-10.983zm2.2538 0.56516c2.504-0.23286 6.5234 2.0461 5.2208 5.5753-1.8956 4.9284-7.3693 3.4986-10.773 2.0468-2.9822-2.7577 0.48277-7.0765 3.1834-7.5457 0.78837 0.00108 1.5825-0.15856 2.3684-0.07637z" fill-opacity=".21875"/>
  <path d="m23.897 62.344c-2.1721 1.2817-3.4545 5.4844-0.5082 6.6801 4.3298 1.1233 5.4946-2.8166 4.7105-7.9004-1.5848-0.33357-2.8448 0.28712-4.2023 1.2203z" fill="url(#a)"/>
  <path d="m42.226 59.205c-2.249 1.258-3.5769 5.3826-0.5262 6.5561 4.4832 1.1024 5.6892-2.7643 4.8774-7.7538-1.641-0.32737-2.9455 0.2818-4.3512 1.1976z" fill="url(#a)"/>
  <path d="m53.417 48.109c-2.3721 1.1271-3.7726 4.8226-0.555 5.874 4.7285 0.98771 6.0006-2.4767 5.1443-6.947-1.7308-0.29331-3.1067 0.25247-4.5893 1.073z" fill="url(#a)"/>
  <path d="m58.403 33.971c-2.1413 1.0795-3.4056 4.619-0.501 5.626 4.2685 0.946 5.4168-2.3721 4.6438-6.6537-1.5624-0.28092-2.8045 0.24181-4.1428 1.0277z" fill="url(#a)"/>
  <path d="m50.226 18.982c-2.1105 1.1271-3.3567 4.8226-0.4938 5.874 4.2071 0.98771 5.339-2.4767 4.5771-6.947-1.5399-0.29331-2.7642 0.25248-4.0833 1.073z" fill="url(#a)"/>
 </g>
</svg>
